<svg width="527" height="530" viewBox="0 0 527 530" fill="none" xmlns="http://www.w3.org/2000/svg">
<rect width="527" height="530" fill="white"/>
<circle opacity="0.7" cx="261.959" cy="311.429" r="158.673" fill="#200E32"/>
<circle opacity="0.7" cx="207.878" cy="217.551" r="158.673" fill="#200E32"/>
<circle opacity="0.7" cx="320.122" cy="221.633" r="158.673" fill="#200E32"/>
<g style="mix-blend-mode:screen">
<rect x="39" y="40" width="450" height="450" rx="6" fill="url(#paint0_linear)"/>
</g>
<path d="M263.984 163.79C278.024 163.79 290.174 165.77 300.434 169.73C310.874 173.69 320.324 179.72 328.784 187.82L308.264 211.85C295.484 201.41 281.804 196.19 267.224 196.19C259.484 196.19 253.364 197.81 248.864 201.05C244.364 204.11 242.114 208.61 242.114 214.55C242.114 218.69 243.104 222.11 245.084 224.81C247.064 227.33 250.574 229.76 255.614 232.1C260.654 234.44 268.214 237.23 278.294 240.47C297.374 246.59 311.414 254.15 320.414 263.15C329.414 271.97 333.914 284.57 333.914 300.95C333.914 312.65 330.944 323 325.004 332C319.064 340.82 310.514 347.75 299.354 352.79C288.194 357.65 274.964 360.08 259.664 360.08C244.364 360.08 230.774 357.65 218.894 352.79C207.194 347.93 197.114 341.45 188.654 333.35L211.064 308.78C218.264 314.9 225.644 319.49 233.204 322.55C240.944 325.61 249.314 327.14 258.314 327.14C267.494 327.14 274.694 325.16 279.914 321.2C285.314 317.06 288.014 311.39 288.014 304.19C288.014 299.51 287.024 295.64 285.044 292.58C283.064 289.34 279.644 286.46 274.784 283.94C269.924 281.42 262.904 278.72 253.724 275.84C233.024 269.54 218.264 261.8 209.444 252.62C200.804 243.44 196.484 231.83 196.484 217.79C196.484 206.99 199.364 197.54 205.124 189.44C210.884 181.16 218.894 174.86 229.154 170.54C239.414 166.04 251.024 163.79 263.984 163.79Z" fill="white"/>
<defs>
<linearGradient id="paint0_linear" x1="39" y1="265" x2="489" y2="265" gradientUnits="userSpaceOnUse">
<stop stop-color="#3DA1BB"/>
<stop offset="1" stop-color="#374490"/>
</linearGradient>
</defs>
</svg>
